<svg width="68" height="67" viewBox="0 0 68 67" fill="none" xmlns="http://www.w3.org/2000/svg">
<g clip-path="url(#clip0)">
<path d="M33.514 0C31.6501 0 29.8281 0.552708 28.2783 1.58823C26.7285 2.62375 25.5206 4.09558 24.8073 5.81759C24.0941 7.5396 23.9074 9.43445 24.2711 11.2625C24.6347 13.0906 25.5323 14.7698 26.8502 16.0878C28.1682 17.4057 29.8474 18.3033 31.6755 18.6669C33.5035 19.0305 35.3984 18.8439 37.1204 18.1306C38.8424 17.4174 40.3142 16.2095 41.3498 14.6597C42.3853 13.1099 42.938 11.2879 42.938 9.424C42.9351 6.92549 41.9413 4.53015 40.1745 2.76344C38.4078 0.996729 36.0125 0.00291124 33.514 0ZM33.514 16.231C32.1679 16.231 30.852 15.8318 29.7328 15.084C28.6135 14.3361 27.7412 13.2732 27.2261 12.0295C26.7109 10.7859 26.5762 9.41745 26.8388 8.09722C27.1014 6.77698 27.7496 5.56427 28.7014 4.61243C29.6533 3.6606 30.866 3.01239 32.1862 2.74978C33.5064 2.48716 34.8749 2.62195 36.1185 3.13708C37.3622 3.65221 38.4251 4.52455 39.173 5.64379C39.9208 6.76303 40.32 8.0789 40.32 9.425C40.3179 11.2294 39.6001 12.9593 38.3242 14.2352C37.0483 15.5111 35.3184 16.2289 33.514 16.231Z" fill="black"/>
<path d="M62.306 42.881C60.6921 41.9494 58.8383 41.5174 56.9789 41.6394C55.1194 41.7614 53.338 42.432 51.8597 43.5664C50.3814 44.7009 49.2727 46.2482 48.6737 48.0127C48.0748 49.7773 48.0125 51.6798 48.4948 53.4797C48.9771 55.2796 49.9823 56.8961 51.3832 58.1248C52.7842 59.3535 54.518 60.1391 56.3655 60.3825C58.2129 60.6258 60.0911 60.3158 61.7624 59.4918C63.4337 58.6677 64.8231 57.3666 65.755 55.753C66.3818 54.6834 66.79 53.5 66.9559 52.2714C67.1217 51.0428 67.0419 49.7935 66.721 48.5961C66.4002 47.3986 65.8447 46.2767 65.0868 45.2957C64.3289 44.3146 63.3836 43.4938 62.306 42.881ZM63.488 54.444C62.8147 55.6107 61.8105 56.5516 60.6025 57.1475C59.3944 57.7435 58.0367 57.9678 56.7011 57.792C55.3656 57.6163 54.1122 57.0484 53.0994 56.1602C52.0866 55.272 51.36 54.1034 51.0115 52.8022C50.663 51.501 50.7082 50.1257 51.1414 48.8501C51.5746 47.5746 52.3764 46.4563 53.4453 45.6365C54.5142 44.8167 55.8022 44.3323 57.1464 44.2447C58.4906 44.157 59.8307 44.47 60.997 45.144C62.5595 46.0479 63.6995 47.5349 64.1665 49.2786C64.6336 51.0223 64.3895 52.8801 63.488 54.444Z" fill="black"/>
<path d="M5.766 35.781C5.41952 35.781 5.08718 35.9184 4.84181 36.163C4.59644 36.4076 4.45806 36.7395 4.457 37.086V37.158C4.457 37.5052 4.59491 37.8381 4.8404 38.0836C5.08588 38.3291 5.41883 38.467 5.766 38.467C6.11317 38.467 6.44612 38.3291 6.6916 38.0836C6.93709 37.8381 7.075 37.5052 7.075 37.158V37.093C7.0754 36.9209 7.04183 36.7503 6.97622 36.5912C6.91061 36.432 6.81426 36.2873 6.69267 36.1655C6.57107 36.0436 6.42664 35.9469 6.26763 35.881C6.10862 35.815 5.93815 35.781 5.766 35.781Z" fill="black"/>
<path d="M22.959 11.462C22.8862 11.3063 22.7835 11.1664 22.6567 11.0503C22.5299 10.9343 22.3815 10.8444 22.2199 10.7857C22.0583 10.727 21.8868 10.7007 21.715 10.7083C21.5433 10.7159 21.3747 10.7573 21.219 10.8301C16.9363 12.8248 13.2054 15.835 10.3504 19.5993C7.49549 23.3636 5.60287 27.7681 4.837 32.43C4.80518 32.6014 4.8079 32.7773 4.84497 32.9476C4.88204 33.1178 4.95273 33.279 5.0529 33.4215C5.15307 33.5641 5.28069 33.6853 5.42829 33.7779C5.57589 33.8705 5.74049 33.9327 5.91245 33.9608C6.0844 33.989 6.26025 33.9825 6.42967 33.9419C6.5991 33.9012 6.7587 33.8271 6.89912 33.7239C7.03953 33.6207 7.15793 33.4905 7.24737 33.341C7.33682 33.1915 7.3955 33.0256 7.42 32.853C8.11719 28.6114 9.83955 24.6042 12.4374 21.1796C15.0353 17.7549 18.4302 15.0164 22.327 13.202C22.4827 13.1293 22.6226 13.0266 22.7387 12.8998C22.8547 12.7729 22.9447 12.6245 23.0034 12.4629C23.0621 12.3014 23.0883 12.1298 23.0807 11.9581C23.0731 11.7863 23.0318 11.6178 22.959 11.462Z" fill="black"/>
<path d="M51.607 14.452C51.3357 14.2353 50.9894 14.1353 50.6443 14.1739C50.2993 14.2125 49.9837 14.3867 49.767 14.658C49.5503 14.9293 49.4503 15.2756 49.4889 15.6206C49.5275 15.9657 49.7017 16.2813 49.973 16.498C53.0827 18.9677 55.5931 22.1093 57.3159 25.6873C59.0388 29.2653 59.9294 33.1868 59.921 37.158C59.921 37.5051 60.0589 37.8381 60.3044 38.0836C60.5499 38.3291 60.8828 38.467 61.23 38.467C61.5772 38.467 61.9101 38.3291 62.1556 38.0836C62.4011 37.8381 62.539 37.5051 62.539 37.158C62.5484 32.7936 61.5698 28.4838 59.6766 24.5515C57.7833 20.6192 55.0245 17.1664 51.607 14.452Z" fill="black"/>
<path d="M49.058 60.246C48.9683 60.0993 48.8506 59.9717 48.7116 59.8704C48.5726 59.7692 48.4151 59.6964 48.2479 59.6561C48.0808 59.6158 47.9073 59.6088 47.7374 59.6356C47.5676 59.6623 47.4047 59.7223 47.258 59.812C43.1419 62.3201 38.4187 63.6559 33.5987 63.6751C28.7787 63.6943 24.045 62.3962 19.909 59.921C19.6117 59.7479 19.2581 59.6988 18.9249 59.7843C18.5916 59.8699 18.3054 60.0832 18.1283 60.3782C17.9511 60.6731 17.8971 61.0259 17.9781 61.3603C18.0591 61.6947 18.2685 61.9838 18.561 62.165C23.1071 64.8863 28.3104 66.3134 33.6087 66.2923C38.907 66.2711 44.0988 64.8025 48.623 62.045C48.9192 61.8641 49.1314 61.5729 49.213 61.2355C49.2946 60.8982 49.2388 60.5423 49.058 60.246Z" fill="black"/>
<path d="M17.588 46.297C16.6562 44.6828 15.2666 43.3812 13.595 42.5568C11.9234 41.7325 10.0449 41.4223 8.19705 41.6656C6.34918 41.9089 4.61496 42.6947 3.21374 43.9237C1.81251 45.1527 0.807219 46.7696 0.324998 48.57C-0.0761394 50.0668 -0.101919 51.6395 0.249943 53.1487C0.601805 54.6579 1.32045 56.057 2.34221 57.2221C3.36397 58.3872 4.65731 59.2824 6.10766 59.8282C7.558 60.3741 9.12059 60.5538 10.657 60.3515C12.1934 60.1492 13.6562 59.5711 14.9158 58.6684C16.1754 57.7657 17.193 56.5663 17.8783 55.1764C18.5636 53.7865 18.8956 52.249 18.8448 50.7002C18.794 49.1514 18.3619 47.639 17.587 46.297H17.588ZM12.83 56.897C11.6644 57.5694 10.3256 57.8812 8.98285 57.7929C7.6401 57.7045 6.35367 57.2201 5.28619 56.4008C4.21871 55.5815 3.4181 54.4641 2.98557 53.1899C2.55305 51.9156 2.50801 50.5417 2.85617 49.2419C3.20433 47.9421 3.93005 46.7746 4.94159 45.8872C5.95313 44.9997 7.20508 44.4321 8.53917 44.256C9.87325 44.08 11.2296 44.3034 12.4367 44.8981C13.6438 45.4928 14.6476 46.4319 15.321 47.597C16.2241 49.1613 16.4691 51.0203 16.002 52.7652C15.5348 54.5101 14.3939 55.9981 12.83 56.902V56.897Z" fill="black"/>
<path d="M46.678 14.0599C47.4009 14.0599 47.987 13.4738 47.987 12.7509C47.987 12.028 47.4009 11.4419 46.678 11.4419C45.955 11.4419 45.369 12.028 45.369 12.7509C45.369 13.4738 45.955 14.0599 46.678 14.0599Z" fill="black"/>
<path d="M44.988 43.123L40.701 38.836C40.0163 38.1514 39.0877 37.7668 38.1195 37.7668C37.1513 37.7668 36.2227 38.1514 35.538 38.836L35.259 39.115C35.1652 39.2087 35.0381 39.2614 34.9055 39.2614C34.7729 39.2614 34.6458 39.2087 34.552 39.115L31.485 36.048C31.3913 35.9542 31.3386 35.8271 31.3386 35.6945C31.3386 35.5619 31.3913 35.4347 31.485 35.341L31.764 35.062C32.4476 34.3768 32.8315 33.4484 32.8315 32.4805C32.8315 31.5126 32.4476 30.5842 31.764 29.899L27.477 25.612C26.7918 24.9284 25.8634 24.5444 24.8955 24.5444C23.9276 24.5444 22.9992 24.9284 22.314 25.612L21.288 26.638C19.705 28.2246 18.816 30.3743 18.816 32.6155C18.816 34.8567 19.705 37.0064 21.288 38.593L32.007 49.312C32.7919 50.097 33.7238 50.7197 34.7495 51.1446C35.7751 51.5695 36.8744 51.7881 37.9845 51.7881C39.0946 51.7881 40.1939 51.5695 41.2195 51.1446C42.2452 50.7197 43.177 50.097 43.962 49.312L44.988 48.286C45.6716 47.6008 46.0555 46.6724 46.0555 45.7045C46.0555 44.7366 45.6716 43.8082 44.988 43.123ZM43.137 46.435L42.111 47.461C41.5692 48.0028 40.9259 48.4326 40.218 48.7259C39.51 49.0191 38.7513 49.17 37.985 49.17C37.2187 49.17 36.46 49.0191 35.752 48.7259C35.0441 48.4326 34.4008 48.0028 33.859 47.461L23.14 36.742C22.0474 35.6468 21.4338 34.163 21.4338 32.616C21.4338 31.069 22.0474 29.5852 23.14 28.49L24.166 27.46C24.3599 27.2665 24.6226 27.1578 24.8965 27.1578C25.1704 27.1578 25.4331 27.2665 25.627 27.46L29.914 31.747C30.1075 31.9408 30.2162 32.2036 30.2162 32.4775C30.2162 32.7514 30.1075 33.0141 29.914 33.208L29.635 33.487C29.0511 34.0721 28.7233 34.8649 28.7233 35.6915C28.7233 36.5181 29.0511 37.3109 29.635 37.896L32.702 40.962C32.9915 41.2515 33.3351 41.4813 33.7134 41.638C34.0916 41.7947 34.4971 41.8754 34.9065 41.8754C35.3159 41.8754 35.7214 41.7947 36.0996 41.638C36.4779 41.4813 36.8215 41.2515 37.111 40.962L37.39 40.683C37.5839 40.4895 37.8466 40.3808 38.1205 40.3808C38.3944 40.3808 38.6571 40.4895 38.851 40.683L43.138 44.97C43.2345 45.0661 43.3111 45.1804 43.3633 45.3062C43.4155 45.4321 43.4423 45.567 43.4422 45.7032C43.4421 45.8394 43.4151 45.9743 43.3627 46.1C43.3103 46.2258 43.2336 46.34 43.137 46.436V46.435Z" fill="black"/>
<path d="M35.934 23.667C35.5868 23.667 35.2539 23.8049 35.0084 24.0504C34.7629 24.2959 34.625 24.6288 34.625 24.976C34.625 25.3232 34.7629 25.6561 35.0084 25.9016C35.2539 26.1471 35.5868 26.285 35.934 26.285C38.1481 26.2874 40.2708 27.168 41.8364 28.7336C43.402 30.2992 44.2826 32.4219 44.285 34.636C44.285 34.9832 44.4229 35.3161 44.6684 35.5616C44.9139 35.8071 45.2468 35.945 45.594 35.945C45.9412 35.945 46.2741 35.8071 46.5196 35.5616C46.7651 35.3161 46.903 34.9832 46.903 34.636C46.8998 31.7278 45.7432 28.9396 43.6868 26.8832C41.6304 24.8268 38.8422 23.6702 35.934 23.667Z" fill="black"/>
<path d="M35.933 29.187C35.5858 29.187 35.2529 29.3249 35.0074 29.5704C34.7619 29.8159 34.624 30.1488 34.624 30.496C34.624 30.8432 34.7619 31.1761 35.0074 31.4216C35.2529 31.6671 35.5858 31.805 35.933 31.805C36.6836 31.8058 37.4032 32.1043 37.9339 32.6351C38.4647 33.1658 38.7632 33.8854 38.764 34.636C38.764 34.9832 38.9019 35.3161 39.1474 35.5616C39.3929 35.8071 39.7258 35.945 40.073 35.945C40.4202 35.945 40.7531 35.8071 40.9986 35.5616C41.2441 35.3161 41.382 34.9832 41.382 34.636C41.3804 33.1913 40.8058 31.8063 39.7843 30.7847C38.7627 29.7632 37.3777 29.1886 35.933 29.187Z" fill="black"/>
</g>
<defs>
<clipPath id="clip0">
<rect width="67.016" height="66.293" fill="white"/>
</clipPath>
</defs>
</svg>
