<svg width="62" height="67" viewBox="0 0 62 67" fill="none" xmlns="http://www.w3.org/2000/svg">
<g clip-path="url(#clip0)">
<path d="M30.918 25.7031C29.3326 25.7031 27.7828 26.1733 26.4646 27.0541C25.1463 27.9349 24.1189 29.1868 23.5122 30.6515C22.9055 32.1163 22.7467 33.728 23.056 35.283C23.3653 36.8379 24.1288 38.2662 25.2498 39.3873C26.3709 40.5083 27.7992 41.2718 29.3542 41.5811C30.9091 41.8904 32.5209 41.7317 33.9856 41.1249C35.4503 40.5182 36.7023 39.4908 37.5831 38.1726C38.4639 36.8544 38.934 35.3045 38.934 33.7191C38.934 31.5931 38.0895 29.5542 36.5862 28.0509C35.0829 26.5477 33.044 25.7031 30.918 25.7031ZM30.918 39.4441C29.7857 39.4441 28.6788 39.1083 27.7374 38.4793C26.7959 37.8502 26.0621 36.9561 25.6288 35.91C25.1955 34.8639 25.0821 33.7128 25.303 32.6022C25.5239 31.4917 26.0692 30.4716 26.8698 29.6709C27.6705 28.8703 28.6906 28.325 29.8011 28.1041C30.9117 27.8832 32.0628 27.9966 33.1089 28.4299C34.155 28.8632 35.0491 29.597 35.6782 30.5385C36.3072 31.48 36.643 32.5868 36.643 33.7191C36.643 35.2375 36.0398 36.6937 34.9662 37.7673C33.8925 38.8409 32.4364 39.4441 30.918 39.4441Z" fill="black"/>
<path d="M6.87 22.268H9.16V19.978H5.725C5.42133 19.978 5.13009 20.0987 4.91536 20.3134C4.70063 20.5281 4.58 20.8193 4.58 21.123V24.558H6.87V22.268Z" fill="black"/>
<path d="M6.87 42.8789H4.58V46.3139C4.58 46.6176 4.70063 46.9088 4.91536 47.1235C5.13009 47.3383 5.42133 47.4589 5.725 47.4589H9.16V45.1689H6.87V42.8789Z" fill="black"/>
<path d="M0 16.542V50.894C0 51.1976 0.120634 51.4889 0.335363 51.7036C0.441686 51.8099 0.56791 51.8943 0.706827 51.9518C0.845745 52.0094 0.994636 52.039 1.145 52.039H60.689C60.8394 52.0391 60.9883 52.0096 61.1273 51.9521C61.2663 51.8946 61.3926 51.8103 61.4989 51.7039C61.6053 51.5976 61.6896 51.4713 61.7471 51.3323C61.8046 51.1933 61.8341 51.0444 61.834 50.894V16.542C61.834 16.3916 61.8044 16.2427 61.7468 16.1038C61.6893 15.9649 61.605 15.8387 61.4986 15.7323C61.3923 15.626 61.2661 15.5417 61.1272 15.4841C60.9883 15.4266 60.8394 15.397 60.689 15.397H1.145C0.994636 15.397 0.845745 15.4266 0.706827 15.4841C0.56791 15.5417 0.441686 15.626 0.335363 15.7323C0.120634 15.9471 0 16.2383 0 16.542ZM2.29 17.687H59.544V49.749H2.29V17.687Z" fill="black"/>
<path d="M56.106 27.994C54.2845 27.9922 52.5382 27.2678 51.2502 25.9798C49.9622 24.6918 49.2379 22.9455 49.236 21.124C49.236 20.8203 49.1154 20.5291 48.9006 20.3144C48.6859 20.0996 48.3947 19.979 48.091 19.979H13.741C13.5906 19.979 13.4417 20.0086 13.3028 20.0662C13.1639 20.1237 13.0377 20.2081 12.9314 20.3144C12.825 20.4207 12.7407 20.5469 12.6832 20.6858C12.6256 20.8248 12.596 20.9736 12.596 21.124C12.5941 22.9455 11.8697 24.6918 10.5818 25.9798C9.29379 27.2678 7.54746 27.9922 5.72599 27.994C5.57563 27.994 5.42674 28.0236 5.28782 28.0812C5.1489 28.1387 5.02268 28.2231 4.91636 28.3294C4.81003 28.4357 4.72569 28.5619 4.66815 28.7008C4.61061 28.8398 4.58099 28.9886 4.58099 29.139V38.304C4.58099 38.4544 4.61061 38.6033 4.66815 38.7422C4.72569 38.8811 4.81003 39.0073 4.91636 39.1136C5.02268 39.22 5.1489 39.3043 5.28782 39.3618C5.42674 39.4194 5.57563 39.449 5.72599 39.449C7.54746 39.4509 9.29379 40.1753 10.5818 41.4632C11.8697 42.7512 12.5941 44.4975 12.596 46.319C12.596 46.4694 12.6256 46.6183 12.6832 46.7572C12.7407 46.8961 12.825 47.0223 12.9314 47.1286C13.0377 47.235 13.1639 47.3193 13.3028 47.3768C13.4417 47.4344 13.5906 47.464 13.741 47.464H48.093C48.2434 47.4641 48.3923 47.4346 48.5313 47.3771C48.6703 47.3196 48.7966 47.2353 48.9029 47.1289C49.0093 47.0226 49.0936 46.8963 49.1511 46.7573C49.2086 46.6184 49.2381 46.4694 49.238 46.319C49.2401 44.4976 49.9646 42.7514 51.2525 41.4635C52.5404 40.1756 54.2866 39.4511 56.108 39.449C56.2584 39.4491 56.4073 39.4196 56.5463 39.3621C56.6853 39.3046 56.8116 39.2203 56.9179 39.1139C57.0243 39.0076 57.1086 38.8813 57.1661 38.7423C57.2236 38.6034 57.2531 38.4544 57.253 38.304V29.143C57.2535 28.9921 57.2242 28.8427 57.1668 28.7031C57.1094 28.5636 57.0249 28.4369 56.9183 28.3301C56.8118 28.2233 56.6851 28.1386 56.5457 28.081C56.4063 28.0233 56.2569 27.9937 56.106 27.994ZM54.961 37.226C52.9439 37.4838 51.0694 38.4037 49.6316 39.8416C48.1937 41.2795 47.2737 43.1539 47.016 45.171H14.816C14.5584 43.1539 13.6385 41.2793 12.2006 39.8414C10.7627 38.4035 8.88813 37.4836 6.87099 37.226V30.214C8.88813 29.9564 10.7627 29.0365 12.2006 27.5986C13.6385 26.1607 14.5584 24.2861 14.816 22.269H47.016C47.2736 24.2861 48.1935 26.1607 49.6314 27.5986C51.0693 29.0365 52.9439 29.9564 54.961 30.214V37.226Z" fill="black"/>
<path d="M56.109 19.978H52.674V22.268H54.964V24.558H57.254V21.123C57.254 20.8193 57.1334 20.5281 56.9186 20.3134C56.7039 20.0987 56.4127 19.978 56.109 19.978Z" fill="black"/>
<path d="M54.964 45.1689H52.674V47.4589H56.109C56.2594 47.459 56.4084 47.4295 56.5473 47.372C56.6863 47.3145 56.8126 47.2302 56.9189 47.1238C57.0253 47.0175 57.1096 46.8912 57.1671 46.7522C57.2246 46.6133 57.2541 46.4643 57.254 46.3139V42.8789H54.964V45.1689Z" fill="black"/>
<path d="M15.459 6.939L16.604 8.92C20.4455 6.70491 24.7489 5.41244 29.1752 5.1445C33.6014 4.87656 38.0294 5.64047 42.11 7.376L37.276 9.792L38.3 11.842L45.17 8.407C45.3049 8.34002 45.4252 8.2471 45.5241 8.13356C45.6229 8.02001 45.6985 7.88809 45.7463 7.74532C45.7941 7.60255 45.8134 7.45175 45.8028 7.30155C45.7923 7.15136 45.7523 7.00471 45.685 6.87L42.255 0L40.205 1.024L42.151 4.917C37.835 3.23117 33.195 2.5376 28.5747 2.8876C23.9543 3.23761 19.4718 4.62224 15.459 6.939Z" fill="black"/>
<path d="M45.231 59.3539L44.086 57.373C40.2454 59.5872 35.9429 60.8792 31.5178 61.1472C27.0927 61.4151 22.6658 60.6517 18.586 58.917L23.42 56.4999L22.396 54.45L15.526 57.8849C15.3913 57.9521 15.2712 58.0452 15.1725 58.1588C15.0738 58.2724 14.9985 58.4044 14.9509 58.5471C14.9032 58.6899 14.8842 58.8406 14.8949 58.9907C14.9055 59.1408 14.9457 59.2874 15.013 59.4219L18.448 66.292L20.497 65.2679L18.551 61.3749C22.8653 63.059 27.503 63.7518 32.1211 63.402C36.7392 63.0522 41.2196 61.6687 45.231 59.3539Z" fill="black"/>
</g>
<defs>
<clipPath id="clip0">
<rect width="61.834" height="66.293" fill="white"/>
</clipPath>
</defs>
</svg>
