<svg width="74" height="57" viewBox="0 0 74 57" fill="none" xmlns="http://www.w3.org/2000/svg">
<g clip-path="url(#clip0)">
<path d="M35.766 43.167H28.366C28.039 43.167 27.7254 43.2969 27.4941 43.5281C27.2629 43.7594 27.133 44.073 27.133 44.4V50.567C27.133 50.894 27.2629 51.2076 27.4941 51.4388C27.7254 51.6701 28.039 51.8 28.366 51.8H35.766C36.093 51.8 36.4066 51.6701 36.6379 51.4388C36.8691 51.2076 36.999 50.894 36.999 50.567V44.4C36.999 44.073 36.8691 43.7594 36.6379 43.5281C36.4066 43.2969 36.093 43.167 35.766 43.167ZM34.533 49.334H29.6V45.634H34.533V49.334Z" fill="black"/>
<path d="M59.027 44.429H61.566V46.968H59.027V44.429Z" fill="black"/>
<path d="M64.105 44.429H69.183V46.968H64.105V44.429Z" fill="black"/>
<path d="M59.027 49.5071H69.182V52.0461H59.027V49.5071Z" fill="black"/>
<path d="M73.991 11.056C73.986 10.9261 73.9603 10.7978 73.915 10.676C73.904 10.649 73.898 10.62 73.885 10.595C73.872 10.57 73.878 10.564 73.87 10.549L68.937 0.681999C68.8348 0.477615 68.6778 0.305632 68.4836 0.185215C68.2894 0.0647977 68.0655 0.000677166 67.837 0H28.367C28.1385 0.000677166 27.9146 0.0647977 27.7204 0.185215C27.5262 0.305632 27.3692 0.477615 27.267 0.681999L22.33 10.549C22.323 10.564 22.321 10.58 22.314 10.595C22.307 10.61 22.297 10.649 22.286 10.676C22.2407 10.7978 22.215 10.9261 22.21 11.056C22.21 11.071 22.201 11.084 22.201 11.1V17.267H0V19.734H22.2V22.2H4.933V24.667H22.2V55.5C22.2 55.827 22.3299 56.1406 22.5611 56.3719C22.7924 56.6031 23.106 56.733 23.433 56.733H72.767C73.094 56.733 73.4076 56.6031 73.6389 56.3719C73.8701 56.1406 74 55.827 74 55.5V11.1C74 11.084 73.991 11.072 73.991 11.056ZM67.071 2.467L70.771 9.867H54.121L53.196 2.467H67.071ZM45.489 2.467H50.711L51.636 9.867H44.564L45.489 2.467ZM44.4 12.333H51.8V27.133H44.4V12.333ZM29.128 2.467H43L42.075 9.867H25.428L29.128 2.467ZM71.534 54.267H24.667V24.667H32.067V22.2H24.667V19.733H32.067V17.267H24.667V12.333H41.933V28.367C41.933 28.529 41.9649 28.6894 42.027 28.8391C42.089 28.9887 42.1799 29.1247 42.2945 29.2392C42.4091 29.3537 42.5451 29.4445 42.6948 29.5064C42.8446 29.5683 43.005 29.6001 43.167 29.6H53.034C53.361 29.6 53.6746 29.4701 53.9059 29.2389C54.1371 29.0076 54.267 28.694 54.267 28.367V12.333H71.533L71.534 54.267Z" fill="black"/>
<path d="M0 38.082H19.676V40.621H0V38.082Z" fill="black"/>
<path d="M5.078 43.1599H19.676V45.6989H5.078V43.1599Z" fill="black"/>
</g>
<defs>
<clipPath id="clip0">
<rect width="74" height="56.733" fill="white"/>
</clipPath>
</defs>
</svg>
