<svg width="20" height="20" viewBox="0 0 20 20" fill="none" xmlns="http://www.w3.org/2000/svg">
<g clip-path="url(#clip0)">
<path d="M8.10598 10.8119H8.0942L8.08257 10.8138C4.63538 11.3586 1.522 13.7916 1.522 17.4939V17.8779C1.522 18.4016 1.71812 18.8045 2.07523 19.104C2.42518 19.3976 2.92056 19.5844 3.51005 19.7066C4.68413 19.95 6.30463 19.95 8.08983 19.9499H8.10598H11.894H11.9087C13.6233 19.95 15.2436 19.95 16.4357 19.7067C17.0339 19.5846 17.5422 19.3981 17.9033 19.1057C18.2718 18.8073 18.4794 18.4044 18.48 17.8781V17.8779V17.4939C18.48 13.7945 15.5701 11.3587 11.9181 10.8136L11.9071 10.8119H11.896H8.10598ZM2.93799 17.4939C2.93799 14.6225 5.07007 12.6458 8.11332 12.2639H11.8844C14.8499 12.6461 17.06 14.626 17.06 17.4939V17.8779C17.06 17.9094 17.0446 17.9539 16.9679 18.0114C16.8898 18.0698 16.7665 18.1266 16.5968 18.1785C16.259 18.2818 15.7815 18.3527 15.2356 18.4005C14.1466 18.4958 12.8245 18.4959 11.894 18.4959H8.10398C6.97994 18.4959 5.65843 18.4958 4.61817 18.4006C4.09666 18.3528 3.65666 18.282 3.35061 18.1797C3.19704 18.1283 3.08818 18.0726 3.02029 18.0161C2.95505 17.9619 2.93799 17.9167 2.93799 17.8779V17.4939ZM4.55199 5.38795C4.55199 8.32855 6.90691 10.7259 9.80998 10.7259C12.711 10.7259 15.068 8.32858 15.068 5.38795C15.068 2.44528 12.711 0.0499512 9.80998 0.0499512C6.90895 0.0499512 4.55199 2.44732 4.55199 5.38795ZM9.80998 9.27395C7.69448 9.27395 5.96999 7.53077 5.96999 5.38795C5.96999 3.24328 7.69433 1.50395 9.80998 1.50395C11.9235 1.50395 13.648 3.24518 13.648 5.38795C13.648 7.53282 11.9254 9.27395 9.80998 9.27395Z" fill="black" stroke="black" stroke-width="0.3"/>
</g>
<defs>
<clipPath id="clip0">
<rect width="20" height="20" fill="white"/>
</clipPath>
</defs>
</svg>
