<svg width="54" height="63" viewBox="0 0 54 63" fill="none" xmlns="http://www.w3.org/2000/svg">
<g clip-path="url(#clip0)">
<path d="M53.9376 17.0939V17.0445C53.9104 16.4392 53.8919 15.799 53.8802 15.0873C53.8497 13.4056 53.1809 11.7973 52.0078 10.5845C50.8346 9.37166 49.2437 8.64378 47.5535 8.54655C40.2593 8.14137 34.6197 5.77996 29.8007 1.11323L29.7598 1.07455C29.0097 0.384238 28.0249 0.000732422 27.0023 0.000732422C25.9798 0.000732422 24.995 0.384238 24.2449 1.07455L24.204 1.11323C19.384 5.77996 13.7435 8.14137 6.45219 8.54655C4.76194 8.64353 3.17092 9.37117 1.99761 10.5838C0.824307 11.7964 0.155296 13.4046 0.124497 15.0864C0.11379 15.7942 0.0952964 16.4344 0.0670696 17.0436V17.1577C-0.076985 24.5446 -0.25316 33.7369 2.84207 42.0811C4.46912 46.5534 7.0874 50.6051 10.5032 53.9365C14.7893 57.9291 19.9066 60.9366 25.4927 62.7459C25.6933 62.8152 25.8986 62.8708 26.1069 62.9122C26.6957 63.0295 27.3021 63.0295 27.891 62.9122C28.1003 62.8706 28.3065 62.8147 28.5081 62.7449C34.0905 60.932 39.2038 57.923 43.4869 53.9307C46.9018 50.5975 49.5199 46.545 51.148 42.0724C54.2549 33.704 54.0788 24.4933 53.9376 17.0939ZM47.6566 40.7931C44.3921 49.587 37.7286 55.6268 27.2827 59.255C27.2441 59.2681 27.2048 59.2788 27.1649 59.2869C27.0569 59.3083 26.9458 59.3083 26.8379 59.2869C26.7983 59.2791 26.7593 59.2688 26.721 59.256C16.2644 55.6336 9.59608 49.5976 6.33344 40.8027C3.48058 33.1122 3.64215 24.6732 3.78523 17.2292V17.1877C3.81443 16.5475 3.8339 15.8783 3.84461 15.1415C3.86027 14.3947 4.15876 13.6813 4.68053 13.1436C5.20229 12.6059 5.90896 12.2834 6.65951 12.2405C10.467 12.0834 14.2175 11.2652 17.741 9.82299C21.1063 8.39533 24.1692 6.34759 26.7678 3.78795C26.8309 3.73134 26.9129 3.70001 26.998 3.70001C27.083 3.70001 27.165 3.73134 27.2282 3.78795C29.8285 6.34484 32.8923 8.3899 36.2578 9.81525C39.7814 11.2574 43.5318 12.0756 47.3393 12.2327C48.09 12.2754 48.7968 12.5979 49.3186 13.1356C49.8404 13.6734 50.1388 14.3869 50.1542 15.1337C50.165 15.8735 50.1844 16.5436 50.2136 17.1789C50.3596 24.6413 50.5173 33.0861 47.6566 40.7931Z" fill="black"/>
<path d="M27.0005 15.8008C23.8749 15.8008 20.8195 16.7216 18.2207 18.4467C15.6219 20.1719 13.5964 22.6239 12.4003 25.4928C11.2042 28.3616 10.8912 31.5184 11.501 34.5639C12.1108 37.6095 13.6159 40.407 15.826 42.6027C18.0361 44.7984 20.8519 46.2937 23.9175 46.8995C26.983 47.5053 30.1605 47.1944 33.0481 46.0061C35.9358 44.8178 38.4039 42.8054 40.1404 40.2235C41.8768 37.6417 42.8037 34.6062 42.8037 31.501C42.7988 27.3385 41.1322 23.3479 38.1696 20.4046C35.207 17.4613 31.1903 15.8056 27.0005 15.8008ZM27.0005 43.5053C24.6109 43.5053 22.2749 42.8013 20.2881 41.4824C18.3012 40.1634 16.7526 38.2888 15.8381 36.0954C14.9236 33.9021 14.6844 31.4886 15.1506 29.1602C15.6168 26.8318 16.7675 24.693 18.4572 23.0143C20.1469 21.3356 22.2997 20.1924 24.6434 19.7292C26.9871 19.2661 29.4164 19.5038 31.6241 20.4123C33.8318 21.3208 35.7188 22.8593 37.0464 24.8332C38.374 26.8072 39.0826 29.1279 39.0826 31.5019C39.079 34.6843 37.8049 37.7354 35.5398 39.9856C33.2748 42.2359 30.2038 43.5017 27.0005 43.5053Z" fill="black"/>
<path d="M31.5411 26.6272L24.2012 33.9194L22.2088 31.9399C22.0391 31.756 21.8337 31.6081 21.605 31.5052C21.3763 31.4023 21.129 31.3464 20.878 31.341C20.627 31.3355 20.3774 31.3807 20.1444 31.4736C19.9114 31.5665 19.6998 31.7054 19.5222 31.8818C19.3447 32.0582 19.2049 32.2684 19.1114 32.4999C19.0178 32.7314 18.9724 32.9793 18.9779 33.2287C18.9833 33.4781 19.0396 33.7238 19.1432 33.951C19.2468 34.1782 19.3956 34.3823 19.5807 34.5508L22.8901 37.8386C23.2389 38.1842 23.7115 38.3782 24.2041 38.3782C24.6967 38.3782 25.1693 38.1842 25.5181 37.8386L34.174 29.2391C34.3591 29.0705 34.508 28.8665 34.6116 28.6393C34.7152 28.4121 34.7714 28.1664 34.7769 27.917C34.7824 27.6676 34.7369 27.4197 34.6434 27.1882C34.5498 26.9567 34.4101 26.7464 34.2325 26.5701C34.055 26.3937 33.8433 26.2548 33.6103 26.1619C33.3773 26.0689 33.1278 26.0238 32.8768 26.0292C32.6258 26.0347 32.3784 26.0906 32.1497 26.1935C31.921 26.2964 31.7157 26.4443 31.546 26.6282L31.5411 26.6272Z" fill="black"/>
</g>
<defs>
<clipPath id="clip0">
<rect width="54" height="63" fill="white"/>
</clipPath>
</defs>
</svg>
