<svg width="20" height="20" viewBox="0 0 20 20" fill="none" xmlns="http://www.w3.org/2000/svg">
<g clip-path="url(#clip0)">
<path d="M8.10598 10.812H8.0942L8.08257 10.8138C4.63538 11.3587 1.522 13.7917 1.522 17.494V17.878C1.522 18.4017 1.71812 18.8046 2.07523 19.1041C2.42518 19.3976 2.92056 19.5844 3.51005 19.7066C4.68413 19.95 6.30463 19.95 8.08983 19.95H8.10598H11.894H11.9087C13.6233 19.95 15.2436 19.95 16.4357 19.7067C17.0339 19.5847 17.5422 19.3982 17.9033 19.1057C18.2718 18.8074 18.4794 18.4045 18.48 17.8782V17.878V17.494C18.48 13.7946 15.5701 11.3588 11.9181 10.8137L11.9071 10.812H11.896H8.10598ZM2.93799 17.494C2.93799 14.6225 5.07007 12.6459 8.11332 12.264H11.8844C14.8499 12.6461 17.06 14.6261 17.06 17.494V17.878C17.06 17.9095 17.0446 17.954 16.9679 18.0114C16.8898 18.0698 16.7665 18.1267 16.5968 18.1786C16.259 18.2818 15.7815 18.3528 15.2356 18.4006C14.1466 18.4959 12.8245 18.496 11.894 18.496H8.10398C6.97994 18.496 5.65843 18.4959 4.61817 18.4006C4.09666 18.3529 3.65666 18.2821 3.35061 18.1797C3.19704 18.1284 3.08818 18.0726 3.02029 18.0162C2.95505 17.9619 2.93799 17.9168 2.93799 17.878V17.494ZM4.55199 5.38801C4.55199 8.32861 6.90691 10.726 9.80998 10.726C12.711 10.726 15.068 8.32864 15.068 5.38801C15.068 2.44534 12.711 0.0500122 9.80998 0.0500122C6.90895 0.0500122 4.55199 2.44738 4.55199 5.38801ZM9.80998 9.27401C7.69448 9.27401 5.96999 7.53083 5.96999 5.38801C5.96999 3.24334 7.69433 1.50401 9.80998 1.50401C11.9235 1.50401 13.648 3.24524 13.648 5.38801C13.648 7.53288 11.9254 9.27401 9.80998 9.27401Z" fill="black" stroke="black" stroke-width="0.3"/>
</g>
<defs>
<clipPath id="clip0">
<rect width="20" height="20" fill="white"/>
</clipPath>
</defs>
</svg>
