<svg width="19" height="20" viewBox="0 0 19 20" fill="none" xmlns="http://www.w3.org/2000/svg">
<g clip-path="url(#clip0)">
<path d="M18.25 17.4L16.65 3.99999H13.7C13.35 1.94999 11.5 0.399994 9.25002 0.399994C7.00002 0.399994 5.15002 1.94999 4.80002 3.99999H1.85002L0.250023 17.4C0.150023 18.15 0.450023 18.6 0.700023 18.9C0.950023 19.15 1.40002 19.5 2.25002 19.5H16.25C16.9 19.5 17.45 19.3 17.8 18.85C18.15 18.5 18.3 17.95 18.25 17.4ZM9.25002 2.39999C10.35 2.39999 11.3 3.09999 11.6 3.99999H6.85002C7.20002 3.04999 8.15002 2.39999 9.25002 2.39999ZM2.25002 17.5L3.65002 5.99999H4.75002V7.49999C4.75002 8.04999 5.20002 8.49999 5.75002 8.49999C6.30002 8.49999 6.75002 8.04999 6.75002 7.49999V5.99999H11.75V7.49999C11.75 8.04999 12.2 8.49999 12.75 8.49999C13.3 8.49999 13.75 8.04999 13.75 7.49999V5.99999H14.85L16.25 17.5H2.25002Z" fill="black"/>
</g>
<defs>
<clipPath id="clip0">
<rect width="18.5" height="20" fill="white"/>
</clipPath>
</defs>
</svg>
