<svg width="17" height="19" viewBox="0 0 17 19" fill="none" xmlns="http://www.w3.org/2000/svg">
<path d="M16.3568 17.1L11.8541 12.445C13.7378 9.88002 13.5081 6.17502 11.2568 3.84752C8.77569 1.28252 4.73244 1.28252 2.20542 3.84752C-0.275666 6.41252 -0.275666 10.5925 2.20542 13.205C3.40001 14.44 5.00812 15.1525 6.70812 15.1525C8.0865 15.1525 9.41893 14.6775 10.5216 13.8225L15.0243 18.4775C15.2081 18.6675 15.4378 18.7625 15.6676 18.7625C15.8973 18.7625 16.127 18.6675 16.3108 18.4775C16.7243 18.05 16.7243 17.48 16.3568 17.1ZM6.75406 13.205C5.55947 13.205 4.41082 12.73 3.53785 11.8275C1.74596 9.97502 1.74596 7.03002 3.53785 5.17752C4.41082 4.27502 5.60542 3.80002 6.75406 3.80002C7.90271 3.80002 9.09731 4.27502 9.97028 5.17752C11.7622 7.03002 11.7622 9.97502 9.97028 11.8275C9.09731 12.73 7.94866 13.205 6.75406 13.205Z" fill="black"/>
</svg>
