<svg width="21" height="21" viewBox="0 0 21 21" fill="none" xmlns="http://www.w3.org/2000/svg">
<path d="M10.5 1.3125C6.16875 1.3125 2.625 4.85625 2.625 9.1875V11.1562C2.625 12.9937 4.06875 14.4375 5.90625 14.4375C6.3 14.4375 6.5625 14.175 6.5625 13.7812V8.53125C6.5625 8.1375 6.3 7.875 5.90625 7.875C5.18438 7.875 4.52812 8.1375 4.00312 8.53125C4.33125 5.25 7.15313 2.625 10.5 2.625C13.8469 2.625 16.6687 5.18438 16.9969 8.53125C16.4719 8.1375 15.8156 7.875 15.0938 7.875C14.7 7.875 14.4375 8.1375 14.4375 8.53125V13.7812C14.4375 14.175 14.7 14.4375 15.0938 14.4375C15.4875 14.4375 15.9469 14.3719 16.275 14.175C15.5531 15.4875 14.4375 16.5375 13.0594 17.1281C12.9281 16.3406 12.2719 15.6844 11.4187 15.6844C10.5656 15.6844 9.84375 16.4062 9.84375 17.2594C9.84375 17.7188 10.0406 18.1781 10.4344 18.5063C10.7625 18.7688 11.0906 18.9 11.4844 18.9C11.55 18.9 11.6812 18.9 11.7469 18.9C15.4875 18.375 18.375 15.0281 18.375 11.1562V9.1875C18.375 4.85625 14.8313 1.3125 10.5 1.3125Z" fill="black"/>
</svg>
