<svg width="70" height="48" viewBox="0 0 70 48" fill="none" xmlns="http://www.w3.org/2000/svg">
<rect x="0.5" y="0.5" width="69" height="47" rx="5.5" fill="white" stroke="#D9D9D9"/>
<path fill-rule="evenodd" clip-rule="evenodd" d="M25.0627 8.91187C17.465 8.91187 11.2835 15.4558 11.2835 23.4994C11.2835 31.5438 17.465 38.0883 25.0627 38.0883H43.6194C51.2162 38.0883 57.3967 31.5438 57.3967 23.4994C57.3967 15.4558 51.2162 8.91187 43.6194 8.91187H25.0627Z" fill="#FEFEFE"/>
<path fill-rule="evenodd" clip-rule="evenodd" d="M29.3774 15.6417H16.3584C18.4593 13.0376 21.5816 11.3838 25.0627 11.3838H43.6194C47.0991 11.3838 50.2209 13.0376 52.3217 15.641H42.6648L37.8151 20.994C37.4577 16.8831 33.9856 15.6417 29.3774 15.6417ZM46.8632 22.6084L52.8152 16.2976C54.2263 18.312 55.0625 20.8043 55.0625 23.4993C55.0625 26.0527 54.3119 28.4231 53.0339 30.3786L46.8632 22.6084ZM21.785 20.824H27.7759C29.1173 20.824 30.2091 21.4597 29.7744 23.0979C29.3352 24.7542 28.7413 25.6145 26.7786 25.6145H20.1394L21.785 20.824ZM42.7051 31.0327H52.5755C50.4772 33.8242 47.2423 35.6167 43.6194 35.6167H25.0626C21.4384 35.6167 18.2029 33.8235 16.1047 31.0318H27.703C33.5227 31.0318 36.6271 28.8488 37.576 24.1693L42.7051 31.0327Z" fill="#E21F28"/>
<rect x="8.5" y="7.5" width="52" height="32" rx="16" stroke="black"/>
</svg>
