<svg width="101" height="41" viewBox="0 0 101 41" fill="none" xmlns="http://www.w3.org/2000/svg">
<g clip-path="url(#clip0)">
<path d="M7.43496 25.7651L11.123 19.4112C12.9254 16.3057 17.4021 16.2754 19.1683 19.36L26.8052 32.5973L11.5059 32.6523C7.90203 32.6503 5.73083 28.8118 7.43496 25.7651Z" fill="#060300"/>
<path d="M32.76 21.5723L36.4479 15.2184C38.2504 12.113 36.0385 8.24167 32.4697 8.26254L17.126 8.30287L24.728 21.5093C26.5317 24.6127 30.9594 24.5637 32.76 21.5723Z" fill="#060300"/>
</g>
<path d="M55.9414 28H47.6016V13.9961H50.7559V25.4414H55.9414V28ZM63.2461 28.2441C61.2409 28.2441 59.6068 27.5931 58.3438 26.291C57.0807 24.9824 56.4492 23.2799 56.4492 21.1836C56.4492 18.9701 57.0905 17.1797 58.373 15.8125C59.6556 14.4453 61.3548 13.7617 63.4707 13.7617C65.4694 13.7617 67.084 14.416 68.3145 15.7246C69.5514 17.0332 70.1699 18.7585 70.1699 20.9004C70.1699 23.1009 69.5286 24.875 68.2461 26.2227C66.9701 27.5703 65.3034 28.2441 63.2461 28.2441ZM63.3828 16.4766C62.276 16.4766 61.3971 16.8932 60.7461 17.7266C60.0951 18.5534 59.7695 19.6504 59.7695 21.0176C59.7695 22.4043 60.0951 23.5013 60.7461 24.3086C61.3971 25.1159 62.25 25.5195 63.3047 25.5195C64.3919 25.5195 65.2546 25.1289 65.8926 24.3477C66.5306 23.5599 66.8496 22.4694 66.8496 21.0762C66.8496 19.6243 66.5404 18.4948 65.9219 17.6875C65.3034 16.8802 64.457 16.4766 63.3828 16.4766ZM83.998 27.0625C82.6309 27.8503 80.9316 28.2441 78.9004 28.2441C76.6478 28.2441 74.8704 27.6224 73.5684 26.3789C72.2728 25.1289 71.625 23.4102 71.625 21.2227C71.625 19.0221 72.3346 17.2285 73.7539 15.8418C75.1732 14.4551 77.0612 13.7617 79.418 13.7617C80.9023 13.7617 82.2109 13.9668 83.3438 14.377V17.3359C82.263 16.7109 80.9414 16.3984 79.3789 16.3984C78.0703 16.3984 77.0026 16.8249 76.1758 17.6777C75.3555 18.5241 74.9453 19.6569 74.9453 21.0762C74.9453 22.515 75.3132 23.6283 76.0488 24.416C76.791 25.2038 77.7904 25.5977 79.0469 25.5977C79.8021 25.5977 80.401 25.4902 80.8438 25.2754V22.541H78.041V20.0215H83.998V27.0625ZM92.6406 28.2441C90.6354 28.2441 89.0013 27.5931 87.7383 26.291C86.4753 24.9824 85.8438 23.2799 85.8438 21.1836C85.8438 18.9701 86.485 17.1797 87.7676 15.8125C89.0501 14.4453 90.7493 13.7617 92.8652 13.7617C94.8639 13.7617 96.4785 14.416 97.709 15.7246C98.946 17.0332 99.5645 18.7585 99.5645 20.9004C99.5645 23.1009 98.9232 24.875 97.6406 26.2227C96.3646 27.5703 94.6979 28.2441 92.6406 28.2441ZM92.7773 16.4766C91.6706 16.4766 90.7917 16.8932 90.1406 17.7266C89.4896 18.5534 89.1641 19.6504 89.1641 21.0176C89.1641 22.4043 89.4896 23.5013 90.1406 24.3086C90.7917 25.1159 91.6445 25.5195 92.6992 25.5195C93.7865 25.5195 94.6491 25.1289 95.2871 24.3477C95.9251 23.5599 96.2441 22.4694 96.2441 21.0762C96.2441 19.6243 95.9349 18.4948 95.3164 17.6875C94.6979 16.8802 93.8516 16.4766 92.7773 16.4766Z" fill="black"/>
<defs>
<clipPath id="clip0">
<rect width="26" height="35" fill="white" transform="matrix(0.5 0.866025 0.866025 -0.5 0.344543 17.9917)"/>
</clipPath>
</defs>
</svg>
